<?xml version="1.0" encoding="UTF-8"?>
<svg id="Layer_1" data-name="Layer 1" xmlns="http://www.w3.org/2000/svg" viewBox="0 0 448.5 241.33">
  <defs>
    <style>
      .cls-1 {
        font-size: 22px;
      }

      .cls-1, .cls-2, .cls-3 {
        fill: #231f20;
      }

      .cls-1, .cls-3 {
        font-family: Avenir-Medium, Avenir;
        font-weight: 500;
      }

      .cls-4 {
        letter-spacing: -.05em;
      }

      .cls-2 {
        stroke-width: 0px;
      }

      .cls-3 {
        font-size: 46px;
      }
    </style>
  </defs>
  <text class="cls-3" transform="translate(139.52 87.31)"><tspan x="0" y="0">Building</tspan></text>
  <text class="cls-1" transform="translate(159.45 121)"><tspan x="0" y="0">Use</tspan><tspan class="cls-4" x="37.49" y="0">r</tspan><tspan x="44.42" y="0">- Centric</tspan></text>
  <g>
    <path class="cls-2" d="M12.12,139.96h4.25l6.36,41.01c.55,4.87,1.31,9.11,1.85,14.23h.21c1.42-5.12,2.66-9.36,3.97-14.21l7.42-25.39h4.3l7.5,25.39c1.27,4.85,2.48,9.15,3.84,14.21h.36c.56-5.05,1.21-9.36,1.82-14.21l6.11-41.03h4.08l-9.6,60.05h-5.35l-8.28-28.47c-.98-3.51-1.7-6.9-2.58-10.47h-.27c-.9,3.57-1.65,6.96-2.69,10.47l-8.08,28.47h-5.31l-9.9-60.05Z"/>
    <path class="cls-2" d="M72.47,178.21c0-14.25,10.47-22.98,21.91-22.98s19.54,7.69,19.54,20.22c0,1.13-.05,2.24-.23,3.36h-39.19v-3.44h37.45l-1.71,1.63c0-12.39-6.45-18.3-15.81-18.3s-17.81,7.12-17.81,19.39,8.79,19.54,19.15,19.54c5.94,0,10.59-1.9,14.66-4.72l1.67,3.06c-3.97,2.58-8.88,5.15-16.58,5.15-12.62,0-23.05-8.55-23.05-22.9Z"/>
    <path class="cls-2" d="M133.7,195.1h-.21l-.46,4.91h-3.36v-65.46h4.04v18.98l-.23,9.35h.21c4.4-4.56,10.71-7.66,16.36-7.66,12.32,0,18.52,8.76,18.52,22.28,0,14.84-9.53,23.6-20.26,23.6-4.43,0-10.24-2.34-14.6-6.01ZM164.34,177.53c0-10.73-4.24-18.72-14.92-18.72-4.58,0-10.25,2.53-15.71,8.01v24.28c5.09,4.66,10.79,6.42,14.37,6.42,9.37,0,16.25-8.14,16.25-19.99Z"/>
    <path class="cls-2" d="M182.14,194.19l2.13-2.95c4.83,3.77,10.64,6.4,19.8,6.4s13.49-4.02,13.49-8.62c0-3.96-1.53-7.12-15.4-9.91-11.09-2.23-17.42-5.82-17.42-12.26s5.35-11.63,17.06-11.63c5.87,0,12.61,2.31,16.78,5.38l-2.18,2.9c-3.9-2.89-8.93-4.84-14.9-4.84-9.52,0-12.58,3.87-12.58,7.96,0,4.62,4.48,6.92,14.38,8.96,15.12,3.19,18.47,6.69,18.47,13.19s-6.54,12.33-18.07,12.33c-8.98,0-16.38-3.25-21.55-6.92Z"/>
    <path class="cls-2" d="M260,159.83h-21.87v-3.51h25.91v43.7h-4.04v-40.19ZM256.8,141.34c0-2.66,1.89-4.37,4.28-4.37s4.28,1.7,4.28,4.37-1.89,4.37-4.28,4.37-4.28-1.68-4.28-4.37Z"/>
    <path class="cls-2" d="M304.35,183.68v-23.85h-13.22v-3.12l13.29-.39.54-14.46h3.43v14.46h23.25v3.51h-23.25v24.14c0,8.51,2.44,13.6,12.19,13.6,4.56,0,8.1-.89,11.62-2.27l1.11,3.1c-4,1.59-7.95,2.71-13.3,2.71-11.99,0-15.65-7.04-15.65-17.43Z"/>
    <path class="cls-2" d="M345.46,178.21c0-14.25,10.47-22.98,21.91-22.98s19.54,7.69,19.54,20.22c0,1.13-.05,2.24-.23,3.36h-39.19v-3.44h37.45l-1.71,1.63c0-12.39-6.45-18.3-15.8-18.3s-17.81,7.12-17.81,19.39,8.79,19.54,19.15,19.54c5.94,0,10.59-1.9,14.66-4.72l1.67,3.06c-3.97,2.58-8.88,5.15-16.58,5.15-12.62,0-23.05-8.55-23.05-22.9Z"/>
    <path class="cls-2" d="M400.53,194.19l2.13-2.95c4.83,3.77,10.64,6.4,19.8,6.4s13.49-4.02,13.49-8.62c0-3.96-1.53-7.12-15.4-9.91-11.09-2.23-17.42-5.82-17.42-12.26s5.35-11.63,17.06-11.63c5.87,0,12.61,2.31,16.78,5.38l-2.18,2.9c-3.9-2.89-8.93-4.84-14.9-4.84-9.52,0-12.58,3.87-12.58,7.96,0,4.62,4.48,6.92,14.38,8.96,15.12,3.19,18.47,6.69,18.47,13.19s-6.54,12.33-18.07,12.33c-8.98,0-16.38-3.25-21.55-6.92Z"/>
  </g>
</svg>